# AST/ASF file generated using VICON BodyLanguage
# -----------------------------------------------
:version 1.10
:name VICON
:units
  mass 1.0
  length 0.45
  angle deg
:documentation
   .ast/.asf automatically generated from VICON data using
   VICON BodyBuilder and BodyLanguage model FoxedUp or BRILLIANT.MOD
:root
   order TX TY TZ RX RY RZ
   axis XYZ
   position 0 0 0  
   orientation 0 0 0 
:bonedata
  begin
     id 1 
     name lhipjoint
     direction 0.440178 -0.822639 0.359871 
     length 2.53113 
     axis 0 0 0  XYZ
  end
  begin
     id 2 
     name lfemur
     direction 0.34202 -0.939693 0  
     length 7.88132  
     axis 0 0 20  XYZ
    dof rx ry rz
    limits (-160.0 20.0)
           (-70.0 70.0)
           (-60.0 70.0)
  end
  begin
     id 3 
     name ltibia
     direction 0.34202 -0.939693 0   
     length 8.43783   
     axis 0 0 20   XYZ
    dof rx
    limits (-10.0 170.0)
  end
  begin
     id 4 
     name lfoot
     direction 0.0886351 -0.243523 0.965837   
     length 2.63414   
     axis -90 7.62852e-016 20   XYZ
    dof rx rz
    limits (-45.0 90.0)
           (-70.0 20.0)
  end
  begin
     id 5 
     name ltoes
     direction 1.53703e-011 -4.21717e-011 1   
     length 1.31427   
     axis -90 7.62852e-016 20   XYZ
    dof rx
    limits (-90.0 20.0)
  end
  begin
     id 6 
     name rhipjoint
     direction -0.399779 -0.839773 0.367367   
     length 2.47948  
     axis 0 0 0  XYZ 
  end
  begin
     id 7 
     name rfemur
     direction -0.34202 -0.939693 0   
     length 7.74806   
     axis 0 0 -20   XYZ
    dof rx ry rz
    limits (-160.0 20.0)
           (-70.0 70.0)
           (-70.0 60.0)
  end
  begin
     id 8 
     name rtibia
     direction -0.34202 -0.939693 0   
     length 8.74432   
     axis 0 0 -20   XYZ
    dof rx
    limits (-10.0 170.0)
 end
 begin
     id 9 
     name rfoot
     direction -0.108514 -0.298139 0.948334   
     length 2.66102  
     axis -90 -7.62852e-016 -20   XYZ
    dof rx rz
    limits (-45.0 90.0)
           (-20.0 70.0)
  end
  begin
     id 10 
     name rtoes
     direction -1.53392e-011 -4.22077e-011 1   
     length 1.31983   
     axis -90 -7.62852e-016 -20   XYZ
    dof rx
    limits (-90.0 20.0)
  end
  begin
     id 11 
     name lowerback
     direction 0.0113257 0.999866 0.0118602   
     length 2.58694   
     axis 0 0 0   XYZ
    dof rx ry rz
    limits (-20.0 45.0)
           (-30.0 30.0)
           (-30.0 30.0)
  end
  begin
     id 12 
     name upperback
     direction -0.0164747 0.995193 -0.0965375   
     length 2.52368   
     axis 0 0 0   XYZ
    dof rx ry rz
    limits (-20.0 45.0)
           (-30.0 30.0)
           (-30.0 30.0)
  end
  begin
     id 13 
     name thorax
     direction -0.0194301 0.99433 -0.104552   
     length 2.56099   
     axis 0 0 0   XYZ
    dof rx ry rz
    limits (-20.0 45.0)
           (-30.0 30.0)
           (-30.0 30.0)
  end
  begin
     id 14 
     name lowerneck
     direction 0.0148543 0.995587 -0.092657   
     length 1.71582   
     axis 0 0 0   XYZ
    dof rx ry rz
    limits (-20.0 45.0)
           (-30.0 30.0)
           (-30.0 30.0)
  end
  begin
     id 15 
     name upperneck
     direction -0.0135467 0.993656 -0.111639   
     length 1.68937   
     axis 0 0 0   XYZ
    dof rx ry rz
    limits (-20.0 45.0)
           (-30.0 30.0)
           (-30.0 30.0)
  end
  begin
     id 16
     name head
     direction -0.00615349 0.999547 -0.029448  
     length 1.7462  
     axis 0 0 0   XYZ
    dof rx ry rz
    limits (-20.0 45.0)
           (-30.0 30.0)
           (-30.0 30.0)
  end
  begin
     id 17 
     name lclavicle
     direction 0.988267 0.149885 0.0293713  
     length 4.47222  
     axis 0 0 0   XYZ
    dof ry rz
    limits (-20.0 10.0)
           (0.0 20.0)
  end
  begin
     id 18 
     name lhumerus
     direction 1 -4.48986e-011 -1.14833e-027   
     length 5.37148   
     axis 180 -30 -90   XYZ
    dof rx ry rz
    limits (-60.0 90.0)
           (-90.0 90.0)
           (-90.0 90.0)
  end
  begin
     id 19
     name lradius
     direction 0.999998 0.00170963 -0.000987055   
     length 3.94212   
     axis 180 -30 -90   XYZ
    dof rx
    limits (-10.0 170.0)
  end
  begin
     id 20
     name lwrist
     direction 0.999998 7.53149e-005 -0.00194706   
     length 1.97106   
     axis 4.65056e-015 90 90   XYZ
    dof ry
    limits (-180.0 0.0)
 end
  begin
     id 21 
     name lhand
     direction 1 -4.48973e-011 -1.31746e-026   
     length 1.17917   
     axis 8.4065e-015 90 90   XYZ
    dof rx rz
    limits (-90.0 90.0)
           (-45.0 45.0)
  end
  begin
     id 22 
     name lfingers
     direction 1 -4.49107e-011 -2.63492e-026   
     length 0.950679   
     axis 1.6813e-014 90 90   XYZ
    dof rx
    limits (0.0 90.0)
  end
  begin
     id 23
     name lthumb
     direction 0.707107 -6.35048e-011 0.707107   
     length 1.36499   
     axis -90 45 2.85299e-015   XYZ
    dof rx rz
    limits (-45.0 45.0)
           (-45.0 45.0)
  end
  begin
     id 24 
     name rclavicle
     direction -0.996699 0.0642895 -0.0495725   
     length 4.62611  
     axis 0 0 0   XYZ 
    dof ry rz
    limits (-10.0 20.0)
           (-20.0 0.0)
  end
  begin
     id 25 
     name rhumerus
     direction -1 -4.48919e-011 -2.41059e-027  
     length 5.4981   
     axis 180 30 90   XYZ
    dof rx ry rz
    limits (-90.0 60.0)
           (-90.0 90.0)
           (-90.0 90.0)
  end
  begin
     id 26 
     name rradius
     direction -0.999999 0.00118101 -0.000681858   
     length 3.48381   
     axis 180 30 90   XYZ
    dof rx
    limits (-10.0 170.0)
  end
  begin
     id 27 
     name rwrist
     direction -0.999999 0.000321823 -0.00132288   
     length 1.7419   
     axis 4.65056e-015 -90 -90   XYZ
    dof ry
    limits (-180.0 0.0)
  end
  begin
     id 28
     name rhand
     direction -1 -4.49022e-011 -1.31746e-026   
     length 1.34932   
     axis 8.4065e-015 -90 -90   XYZ
    dof rx rz
    limits (-90.0 90.0)
           (-45.0 45.0)
  end
  begin
     id 29
     name rfingers
     direction -1 -4.49178e-011 -2.63492e-026   
     length 1.08785   
     axis 1.6813e-014 -90 -90   XYZ
    dof rx
    limits (0.0 90.0)
  end
  begin
     id 30
     name rthumb
     direction -0.707107 -6.34713e-011 0.707107   
     length 1.56195   
     axis -90 -45 -2.85299e-015   XYZ
    dof rx rz
    limits (-45.0 45.0)
           (-45.0 45.0)
  end
:hierarchy
  begin
    root lhipjoint rhipjoint lowerback
    lhipjoint lfemur
    lfemur ltibia
    ltibia lfoot
    lfoot ltoes
    rhipjoint rfemur
    rfemur rtibia
    rtibia rfoot
    rfoot rtoes
    lowerback upperback
    upperback thorax
    thorax lowerneck lclavicle rclavicle
    lowerneck upperneck
    upperneck head
    lclavicle lhumerus
    lhumerus lradius
    lradius lwrist
    lwrist lhand lthumb
    lhand lfingers
    rclavicle rhumerus
    rhumerus rradius
    rradius rwrist
    rwrist rhand rthumb
    rhand rfingers
  end

#!OML:ASF X:\für Bonn\!DataBase\2005_08_10_Bjorn_Final\c3d\bjorn.ASF
:FULLY-SPECIFIED
:DEGREES
16
root -8.65195 19.1114 -1.64737 1474.76 -86.606 -37.9466
lowerback -2.01486 2.87105 4.9367
upperback 8.40837 3.38406 -0.990347
thorax 10.4664 2.01795 -3.45311
lowerneck -3.17162 -3.67047 5.28309
upperneck 1.89227 -5.06819 -2.0337
head 0.933028 -2.52336 -1.60805
rclavicle -5.10877e-014 5.96354e-015
rhumerus -13.8614 -0.344819 -90.7619
rradius 30.3199
rwrist -5.36998
rhand -11.4776 5.61794
rfingers 7.12502
rthumb 14.5604 -23.851
lclavicle -5.10877e-014 5.96354e-015
lhumerus -35.3381 14.0985 81.5129
lradius 14.2618
lwrist -49.3568
lhand -7.56595 -4.73462
lfingers 7.12502
lthumb 18.3264 24.4221
rfemur -1.14595 -4.34439 19.5987
rtibia 27.5675
rfoot -14.3668 19.0029
rtoes 4.51108
lfemur -21.4389 6.69035 -15.2357
ltibia 48.0452
lfoot -8.80226 -3.43284
ltoes -12.9102
17
root -8.80511 19.111 -1.63679 1476.94 -86.6934 -40.0133
lowerback -2.10893 2.99097 4.89667
upperback 8.35553 3.55072 -1.01093
thorax 10.4796 2.09733 -3.42916
lowerneck -3.22529 -3.74471 5.2862
upperneck 1.92214 -5.17013 -2.03974
head 0.947503 -2.57415 -1.61365
rclavicle 2.89232e-014 -5.56597e-015
rhumerus -13.496 0.317129 -90.7293
rradius 31.5372
rwrist -5.94052
rhand -11.2946 5.5343
rfingers 7.12502
rthumb 14.7366 -23.9219
lclavicle 2.89232e-014 -5.56597e-015
lhumerus -35.6451 13.1564 81.9405
lradius 14.5094
lwrist -48.2577
lhand -8.2565 -5.22912
lfingers 7.12502
lthumb 17.662 23.9887
rfemur -0.438799 -4.52202 19.5322
rtibia 26.9374
rfoot -14.3039 19.3828
rtoes 4.71917
lfemur -22.0049 6.83081 -15.2807
ltibia 46.1301
lfoot -8.72146 -3.25215
ltoes -11.66
18
root -8.95955 19.121 -1.62517 1479.36 -86.7555 -42.3065
lowerback -2.19855 3.10444 4.89473
upperback 8.28502 3.70828 -1.04478
thorax 10.4735 2.17573 -3.44204
lowerneck -3.18838 -3.82787 5.25118
upperneck 1.90259 -5.27941 -1.96508
head 0.933319 -2.62809 -1.58333
rclavicle -9.74045e-015 4.77083e-015
rhumerus -13.1866 0.893469 -90.7056
rradius 32.749
rwrist -6.42301
rhand -11.1761 5.6034
rfingers 7.12502
rthumb 14.8508 -23.8444
lclavicle -9.74045e-015 4.77083e-015
lhumerus -35.9582 12.0187 82.4594
lradius 14.7764
lwrist -46.8035
lhand -8.86634 -5.61815
lfingers 7.12502
lthumb 17.0751 23.6515
rfemur 0.326104 -4.6839 19.4869
rtibia 26.2085
rfoot -14.2232 19.7295
rtoes 4.87877
lfemur -22.5814 6.99814 -15.3011
ltibia 44.1998
lfoot -8.57277 -3.1996
ltoes -11.2837
19
root -9.11334 19.1272 -1.61376 1481.21 -86.7982 -44.0424
lowerback -2.3118 3.22245 4.8877
upperback 8.24378 3.87225 -1.10906
thorax 10.518 2.2594 -3.48176
lowerneck -3.2601 -3.90662 5.35161
upperneck 1.93517 -5.39248 -1.97825
head 0.948886 -2.68389 -1.60878
rclavicle 3.27995e-015 9.54166e-015
rhumerus -12.8212 1.32585 -90.71
rradius 33.9482
rwrist -6.83001
rhand -11.1157 5.76624
rfingers 7.12502
rthumb 14.909 -23.6772
lclavicle 3.27995e-015 9.54166e-015
lhumerus -36.198 11.1223 82.8095
lradius 15.0317
lwrist -45.7842
lhand -9.37949 -5.96183
lfingers 7.12502
lthumb 16.5811 23.3498
rfemur 1.11988 -4.87265 19.4259
rtibia 25.4272
rfoot -14.1575 20.0149
rtoes 4.65004
lfemur -23.1257 7.08436 -15.3236
ltibia 42.2251
lfoot -8.35781 -3.28777
ltoes -11.1648
20
root -9.26889 19.1289 -1.60158 1483.81 -86.8461 -46.5365
lowerback -2.43444 3.35177 4.90389
upperback 8.20173 4.04816 -1.15854
thorax 10.5699 2.35007 -3.51592
lowerneck -3.32303 -4.0101 5.36898
upperneck 1.97204 -5.53605 -1.93244
head 0.966494 -2.75454 -1.60122
rclavicle -5.35725e-014 2.06736e-014
rhumerus -12.4822 1.80144 -90.6939
rradius 35.1811
rwrist -7.32784
rhand -11.0724 5.89069
rfingers 7.12502
rthumb 14.9508 -23.5497
lclavicle -5.35725e-014 2.06736e-014
lhumerus -36.4553 10.1138 83.2492
lradius 15.3889
lwrist -44.7017
lhand -9.66918 -6.14017
lfingers 7.12502
lthumb 16.3022 23.1946
rfemur 1.93211 -4.99054 19.3853
rtibia 24.6275
rfoot -14.0352 20.3067
rtoes 4.73693
lfemur -23.6056 7.1693 -15.3099
ltibia 40.2168
lfoot -8.01757 -3.52922
ltoes -11.0919
21
root -9.42403 19.127 -1.58875 1485.79 -86.9118 -48.4025
lowerback -2.54317 3.47008 4.86314
upperback 8.14299 4.21543 -1.21172
thorax 10.5886 2.43129 -3.52411
lowerneck -3.34392 -4.09881 5.39444
upperneck 2.0073 -5.65707 -1.91876
head 0.976236 -2.81419 -1.60383
rclavicle 1.80894e-014 1.59028e-015
rhumerus -12.1722 2.26508 -90.6708
rradius 36.4308
rwrist -7.94642
rhand -11.0789 5.97981
rfingers 7.12502
rthumb 14.9445 -23.461
lclavicle 1.80894e-014 1.59028e-015
lhumerus -36.7378 9.10935 83.6981
lradius 15.7361
lwrist -43.5426
lhand -9.94405 -6.26179
lfingers 7.12502
lthumb 16.0375 23.0945
rfemur 2.7127 -5.12946 19.2842
rtibia 23.9017
rfoot -13.9602 20.6132
rtoes 4.77274
lfemur -24.0331 7.24859 -15.3435
ltibia 38.1497
lfoot -7.61068 -3.88772
ltoes -11.1179
